<svg width="18" height="18" viewBox="0 0 18 18" fill="none" xmlns="http://www.w3.org/2000/svg">
<path d="M9.00989 7.24034L15.6154 0.652747C16.1041 0.165169 16.8955 0.166086 17.3831 0.654797C17.8707 1.14351 17.8698 1.93497 17.3811 2.42257L10.7784 9.00736L17.3782 15.6016C17.8666 16.0895 17.8668 16.881 17.3789 17.3693C16.8909 17.8577 16.0994 17.8579 15.6111 17.37L9.00824 10.7727L2.40313 17.36C1.9144 17.8475 1.12295 17.8466 0.635355 17.3579C0.147757 16.8692 0.148695 16.0777 0.637406 15.5901L7.23971 9.00572L0.643851 2.41546C0.155511 1.92749 0.155238 1.13603 0.643206 0.647688C1.13118 0.159348 1.92264 0.159075 2.41098 0.647044L9.00987 7.24034H9.00989Z" fill="white"/>
</svg>
