<svg width="21" height="21" viewBox="0 0 21 21" fill="none" xmlns="http://www.w3.org/2000/svg">
<path d="M10.4513 1C7.93598 1.0129 5.52846 2.02281 3.7567 3.80825C1.98494 5.59369 0.993582 8.00891 1.00003 10.5242C1.00648 13.0396 2.01021 15.4497 3.7911 17.226C5.57199 19.0023 7.98466 19.9999 10.5 19.9999C13.0153 19.9999 15.428 19.0023 17.2089 17.226C18.9898 15.4497 19.9935 13.0396 20 10.5242C20.0064 8.00891 19.0151 5.59369 17.2433 3.80825C15.4715 2.02281 13.064 1.0129 10.5487 1H10.4513Z" stroke="white" stroke-width="1.26667"/>
<path d="M10.5 1V20M20 10.5H1M3.14359 4.65385C5.29072 6.18564 7.86247 7.00898 10.5 7.00898C13.1375 7.00898 15.7093 6.18564 17.8564 4.65385M17.8564 16.3462C15.7093 14.8144 13.1375 13.991 10.5 13.991C7.86247 13.991 5.29072 14.8144 3.14359 16.3462M9.76923 1.24359C8.41544 2.3869 7.32743 3.81183 6.58111 5.41897C5.8348 7.02611 5.44815 8.77674 5.44815 10.5487C5.44815 12.3207 5.8348 14.0713 6.58111 15.6785C7.32743 17.2856 8.41544 18.7105 9.76923 19.8538M11.2308 19.8538C12.5846 18.7105 13.6726 17.2856 14.4189 15.6785C15.1652 14.0713 15.5519 12.3207 15.5519 10.5487C15.5519 8.77674 15.1652 7.02611 14.4189 5.41897C13.6726 3.81183 12.5846 2.3869 11.2308 1.24359" stroke="white" stroke-width="0.876923"/>
</svg>
