<svg width="130" height="30" viewBox="0 0 130 30" fill="none" xmlns="http://www.w3.org/2000/svg">
<path d="M36.7449 22V20.3806L46.0748 7.15918H36.9866V5.3222H48.5885V6.94164L39.2586 20.163H48.8302V22H36.7449ZM58.2474 22V5.3222H69.1242V7.15918H60.2777V12.3317H68.3991V14.1687H60.2777V20.163H69.1242V22H58.2474ZM78.547 22V5.3222H80.7949L89.5689 18.8578V5.3222H91.5992V22H89.3513L80.5773 8.4644V22H78.547ZM101.986 22V5.3222H104.016V22H101.986ZM114.16 18.3019V9.02032C114.16 6.55491 115.393 5.3222 117.858 5.3222H123.514C125.98 5.3222 127.212 6.55491 127.212 9.02032V18.3261C127.212 20.5659 126.157 21.7663 124.046 21.9275L125.69 25.1422L125.424 25.6256H123.708L121.871 22H117.858C115.393 22 114.16 20.7673 114.16 18.3019ZM116.19 18.5194C116.19 19.6152 116.738 20.163 117.834 20.163H123.538C124.634 20.163 125.182 19.6152 125.182 18.5194V8.80279C125.182 7.70705 124.634 7.15918 123.538 7.15918H117.834C116.738 7.15918 116.19 7.70705 116.19 8.80279V18.5194Z" fill="white"/>
<path d="M12.002 3.49837C11.8588 3.4987 11.7155 3.55213 11.6074 3.65844L6.31777 8.51114L7.78715 8.55357L12.0693 8.55156C12.3723 8.54095 11.7662 8.56217 12.0693 8.55156L16.1894 8.56194L17.522 8.53926L12.3971 3.65667C12.2886 3.55085 12.1453 3.49804 12.002 3.49837V3.49837ZM20.5319 11.5855L20.0446 11.5859L19.4851 14.9642C19.5713 15.0482 23.6804 15.2576 23.5945 15.342L12.1486 26.6024C12.0628 26.6869 11.932 26.6871 11.8457 26.603L4.58581 15.0334C4.52181 14.9314 4.50005 15.1178 4.58581 15.0334L4.01559 11.6047L3.52939 11.6054L0.161478 14.9187C-0.0546579 15.1314 -0.0536547 15.4802 0.163475 15.6918L11.603 26.8418C11.8201 27.0534 12.1763 27.0526 12.3925 26.84L23.8384 15.5799C24.0546 15.3672 24.0538 15.0182 23.8366 14.8066L20.5319 11.5855ZM16.0235 11.5908L15.5365 11.5912L19.2423 15.203C19.2717 15.2317 19.2718 15.2707 19.2424 15.2995L12.0839 22.341C12.0546 22.3698 12.0148 22.37 11.9854 22.3412L4.82991 15.3675C4.80049 15.3388 4.80033 15.2998 4.82976 15.271L8.56237 11.5994L4.01566 11.6047L4.58588 15.0334C4.42628 15.1904 10.8335 25.089 10.9938 25.2452L11.8458 26.603C12.0061 26.7593 11.989 26.7594 12.1486 26.6024L23.5945 15.342C23.7541 15.185 20.205 11.7422 20.0446 11.5859L16.0235 11.5908Z" fill="white" fill-opacity="0.95"/>
</svg>
