<svg width="49" height="49" viewBox="0 0 49 49" fill="none" xmlns="http://www.w3.org/2000/svg">
<path d="M24.0782 48.5017C37.3405 48.5017 48.0917 37.7504 48.0917 24.4881C48.0917 11.2258 37.3405 0.474609 24.0782 0.474609C10.8159 0.474609 0.0646973 11.2258 0.0646973 24.4881C0.0646973 37.7504 10.8159 48.5017 24.0782 48.5017Z" fill="#D9D9D9" fill-opacity="0.7"/>
<path d="M17.9709 34.4686V14.5076C17.9718 14.4255 17.9946 14.3452 18.0368 14.2749C18.079 14.2045 18.1392 14.1467 18.2112 14.1074C18.2832 14.068 18.3644 14.0486 18.4464 14.051C18.5284 14.0534 18.6082 14.0776 18.6778 14.1212L34.3884 24.1017C34.4525 24.1437 34.5052 24.201 34.5417 24.2684C34.5782 24.3359 34.5973 24.4114 34.5973 24.4881C34.5973 24.5648 34.5782 24.6402 34.5417 24.7077C34.5052 24.7752 34.4525 24.8325 34.3884 24.8745L18.6778 34.855C18.6082 34.8985 18.5284 34.9227 18.4464 34.9252C18.3644 34.9276 18.2832 34.9081 18.2112 34.8688C18.1392 34.8294 18.079 34.7716 18.0368 34.7013C17.9946 34.6309 17.9718 34.5506 17.9709 34.4686Z" fill="white" fill-opacity="0.95"/>
</svg>
