<svg width="53" height="53" viewBox="0 0 53 53" fill="none" xmlns="http://www.w3.org/2000/svg">
<g filter="url(#filter0_d_608_4)">
<circle cx="26.5" cy="22.5" r="22.5" fill="#2F353E"/>
<path d="M26.7396 20.9591L33.3451 14.3715C33.8338 13.8839 34.6253 13.8848 35.1129 14.3735C35.6005 14.8623 35.5995 15.6537 35.1108 16.1413L28.5082 22.7261L35.108 29.3203C35.5963 29.8083 35.5966 30.5997 35.1086 31.0881C34.6206 31.5764 33.8292 31.5767 33.3408 31.0887L26.738 24.4915L20.1329 31.0787C19.6441 31.5663 18.8527 31.5654 18.3651 31.0767C17.8775 30.5879 17.8784 29.7965 18.3671 29.3089L24.9694 22.7245L18.3736 16.1342C17.8852 15.6462 17.885 14.8548 18.3729 14.3664C18.8609 13.8781 19.6524 13.8778 20.1407 14.3658L26.7396 20.9591H26.7396Z" fill="white"/>
</g>
<defs>
<filter id="filter0_d_608_4" x="0" y="0" width="53" height="53" filterUnits="userSpaceOnUse" color-interpolation-filters="sRGB">
<feFlood flood-opacity="0" result="BackgroundImageFix"/>
<feColorMatrix in="SourceAlpha" type="matrix" values="0 0 0 0 0 0 0 0 0 0 0 0 0 0 0 0 0 0 127 0" result="hardAlpha"/>
<feOffset dy="4"/>
<feGaussianBlur stdDeviation="2"/>
<feComposite in2="hardAlpha" operator="out"/>
<feColorMatrix type="matrix" values="0 0 0 0 0 0 0 0 0 0 0 0 0 0 0 0 0 0 0.25 0"/>
<feBlend mode="normal" in2="BackgroundImageFix" result="effect1_dropShadow_608_4"/>
<feBlend mode="normal" in="SourceGraphic" in2="effect1_dropShadow_608_4" result="shape"/>
</filter>
</defs>
</svg>
