<svg width="87" height="87" viewBox="0 0 87 87" fill="none" xmlns="http://www.w3.org/2000/svg">
<path d="M60.645 47.7965C59.5054 47.7999 58.4138 48.2556 57.61 49.0634C56.8062 49.8713 56.356 50.9652 56.3583 52.1048C56.3583 54.4829 58.2755 56.413 60.645 56.413H60.6881C63.0576 56.413 64.9748 54.4829 64.9748 52.1048C64.9748 49.7266 63.0576 47.7965 60.6881 47.7965H60.645Z" fill="#2F2695"/>
<path fill-rule="evenodd" clip-rule="evenodd" d="M62.5965 0.405273H62.7774C70.9201 0.405273 77.8995 6.68673 77.8995 14.9672V18.9438C82.9746 21.2487 86.516 26.3669 86.516 32.2865V71.9226C86.516 79.9877 79.933 86.5707 71.8679 86.5707H14.9987C11.1162 86.5627 7.39506 85.0169 4.64973 82.2716C1.9044 79.5262 0.35856 75.8051 0.350591 71.9226V15.4842C0.347873 12.6617 1.45408 9.95114 3.43085 7.93649C5.40763 5.92183 8.09675 4.76439 10.9188 4.71355L62.5965 0.405273ZM69.2829 14.9672V17.6384H11.1213C10.8381 17.6395 10.5574 17.5846 10.2956 17.4767C10.0337 17.3689 9.79578 17.2102 9.59552 17.01C9.39527 16.8097 9.23664 16.5718 9.12879 16.3099C9.02093 16.0481 8.96599 15.7674 8.96713 15.4842C8.96713 14.2865 9.92357 13.3301 11.1213 13.3301H11.3022L62.9369 9.02182C66.685 9.09937 69.2829 11.917 69.2829 14.9672ZM82.2077 39.1797H55.1259C51.046 39.1797 47.7416 42.2644 47.7416 46.073V58.1361C47.7416 61.9446 51.0503 65.0294 55.1259 65.0294H82.2077V39.1797Z" fill="#2F2695"/>
</svg>
