<svg width="56" height="56" viewBox="0 0 56 56" fill="none" xmlns="http://www.w3.org/2000/svg">
<path d="M29.974 0.111816C44.1824 0.111816 55.8074 11.7369 55.8074 25.9453V29.9815C55.8074 44.19 44.1823 55.815 29.974 55.815H25.9377C11.7293 55.815 0.104248 44.19 0.104248 29.9815V25.9453C0.104248 11.7369 11.7293 0.111816 25.9377 0.111816H29.974ZM28.4637 14.1123L28.1042 14.1118C25.1113 14.1118 22.1184 14.2107 22.1184 14.2107C17.747 14.2107 14.2032 17.7545 14.2032 22.126C14.2032 22.126 14.1123 24.6959 14.1047 27.4543L14.1042 27.815C14.1042 30.9035 14.2032 34.0977 14.2032 34.0977C14.2032 38.4691 17.747 42.0129 22.1184 42.0129C22.1184 42.0129 24.9167 42.1118 27.8075 42.1118C30.896 42.1118 34.1891 42.0129 34.1891 42.0129C38.5605 42.0129 42.0053 38.5681 42.0053 34.1967C42.0053 34.1967 42.1042 31.0385 42.1042 28.0129L42.1024 27.3029C42.089 24.5884 42.0053 22.027 42.0053 22.027C42.0053 17.6555 38.5605 14.2107 34.189 14.2107C34.189 14.2107 31.3396 14.1196 28.4637 14.1123ZM28.1042 16.6318C30.5585 16.6318 33.7052 16.7129 33.7052 16.7129C37.2899 16.7129 39.5031 18.9261 39.5031 22.5107C39.5031 22.5107 39.5842 25.6038 39.5842 28.0306C39.5842 30.5115 39.5031 33.7127 39.5031 33.7127C39.5031 37.2973 37.2899 39.5105 33.7052 39.5105C33.7052 39.5105 30.9224 39.5787 28.5079 39.5901L27.8609 39.5917C25.4904 39.5917 22.6022 39.5105 22.6022 39.5105C19.0176 39.5105 16.7054 37.1983 16.7054 33.6138C16.7054 33.6138 16.6242 30.4009 16.6242 27.8684C16.6242 25.4979 16.7054 22.5107 16.7054 22.5107C16.7054 18.9261 19.0177 16.7129 22.6022 16.7129C22.6022 16.7129 25.65 16.6318 28.1042 16.6318ZM28.1042 20.9402C24.1434 20.9402 20.9326 24.151 20.9326 28.1117C20.9326 32.0725 24.1434 35.2833 28.1042 35.2833C32.065 35.2833 35.2758 32.0725 35.2758 28.1117C35.2758 24.151 32.065 20.9402 28.1042 20.9402ZM28.1042 23.445C30.6815 23.445 32.7709 25.5344 32.7709 28.1117C32.7709 30.6891 30.6815 32.7784 28.1042 32.7784C25.5269 32.7784 23.4375 30.6891 23.4375 28.1117C23.4375 25.5344 25.5268 23.445 28.1042 23.445ZM35.6189 18.95C34.6619 18.95 33.8861 19.7297 33.8861 20.6914C33.8861 21.6532 34.6619 22.4328 35.6189 22.4328C36.5759 22.4328 37.3517 21.6532 37.3517 20.6914C37.3517 19.7296 36.5759 18.95 35.6189 18.95Z" fill="#2F353E"/>
</svg>
