<svg width="57" height="57" viewBox="0 0 57 57" fill="none" xmlns="http://www.w3.org/2000/svg">
<path fill-rule="evenodd" clip-rule="evenodd" d="M56.8606 28.0195C56.8606 43.4833 44.3244 56.0195 28.8606 56.0195C13.3966 56.0195 0.860596 43.4833 0.860596 28.0195C0.860596 12.5554 13.3966 0.0194092 28.8606 0.0194092C44.3244 0.0194092 56.8606 12.5554 56.8606 28.0195ZM29.8638 20.6903C27.1406 21.823 21.6976 24.1675 13.535 27.7238C12.2095 28.251 11.5152 28.7668 11.452 29.2708C11.3451 30.1231 12.4122 30.4585 13.8653 30.9155C14.063 30.9777 14.2678 31.0421 14.4778 31.1101C15.9074 31.5749 17.8305 32.1187 18.8302 32.1402C19.7371 32.1598 20.7493 31.786 21.8667 31.0185C29.4934 25.8704 33.4302 23.2684 33.6772 23.2121C33.8516 23.1726 34.0932 23.1228 34.257 23.2684C34.4208 23.414 34.4046 23.6895 34.3872 23.7634C34.2817 24.2142 30.0929 28.1085 27.9251 30.1237C27.2495 30.752 26.7701 31.1975 26.6721 31.2994C26.4526 31.5273 26.2289 31.7429 26.0138 31.9501C24.6858 33.2305 23.6896 34.1907 26.069 35.7587C27.2125 36.5121 28.1273 37.1351 29.0401 37.7567C30.0369 38.4357 31.0312 39.1128 32.3178 39.9562C32.6454 40.1709 32.9584 40.3941 33.2633 40.6114C34.4234 41.4385 35.4655 42.1816 36.7532 42.0629C37.5014 41.9943 38.2742 41.2906 38.6668 39.1923C39.5944 34.2335 41.4178 23.489 41.8392 19.0617C41.8761 18.6738 41.8296 18.1774 41.7924 17.9595C41.7549 17.7415 41.677 17.431 41.3937 17.2012C41.0582 16.9289 40.5405 16.8715 40.3087 16.8754C39.2556 16.8942 37.6397 17.456 29.8638 20.6903Z" fill="#2F353E"/>
</svg>
