<svg width="57" height="58" viewBox="0 0 57 58" fill="none" xmlns="http://www.w3.org/2000/svg">
<path fill-rule="evenodd" clip-rule="evenodd" d="M47.98 9.06135C42.7625 3.80944 35.66 0.864759 28.2572 0.884498C12.8874 0.884498 0.37884 13.3918 0.373493 28.7654C0.366929 33.6583 1.6508 38.4663 4.09558 42.7047L0.139526 57.1545L14.9209 53.2773C19.0088 55.5048 23.5899 56.6718 28.2452 56.6718H28.2572C43.6242 56.6718 56.134 44.1632 56.1394 28.7896C56.1633 21.3877 53.2252 14.2839 47.98 9.06135ZM40.9689 34.5985C40.2724 34.2496 36.8471 32.5652 36.208 32.3258C35.569 32.0865 35.1051 31.9768 34.6412 32.6747C34.1773 33.3727 32.8417 34.9409 32.4352 35.4062C32.0288 35.8713 31.6224 35.9288 30.9256 35.58C30.2291 35.2311 27.9844 34.4956 25.3226 32.1227C23.2516 30.2748 21.8464 27.9941 21.4453 27.2961C21.0442 26.5982 21.4025 26.2265 21.7515 25.8735C22.0643 25.5621 22.448 25.0606 22.7956 24.653C23.1433 24.2452 23.2609 23.9564 23.4921 23.4912C23.7236 23.0259 23.6084 22.6195 23.4346 22.2705C23.2609 21.9216 21.8665 18.4923 21.2862 17.0978C20.7207 15.7394 20.1471 15.9226 19.7193 15.8945C19.3182 15.8745 18.8476 15.8705 18.3824 15.8705C17.6684 15.8891 16.9947 16.2051 16.524 16.7422C15.8862 17.4401 14.0867 19.1246 14.0867 22.5539C14.0867 25.9833 16.5828 29.2962 16.9304 29.7615C17.278 30.2268 21.8437 37.2632 28.8294 40.282C30.1268 40.8416 31.4526 41.3325 32.8016 41.7527C34.47 42.2874 35.9888 42.2086 37.1893 42.0295C38.5263 41.8289 41.3113 40.3435 41.8927 38.7163C42.4743 37.0894 42.4731 35.6935 42.294 35.4034C42.1148 35.1133 41.6654 34.9529 40.9689 34.6039V34.5985Z" fill="#2F353E"/>
</svg>
