<svg xmlns="http://www.w3.org/2000/svg" xmlns:xlink="http://www.w3.org/1999/xlink" width="217.62" height="64.05" viewBox="0 0 217.62 64.05">
  <defs>
    <linearGradient id="linear-gradient" x1="0.808" y1="0.5" x2="-1.573" y2="0.5" gradientUnits="objectBoundingBox">
      <stop offset="0" stop-color="#f7df14"/>
      <stop offset="0.194" stop-color="#f1cf18"/>
      <stop offset="0.547" stop-color="#e7b31a"/>
      <stop offset="0.828" stop-color="#e1a01b"/>
      <stop offset="1" stop-color="#df991b"/>
    </linearGradient>
    <linearGradient id="linear-gradient-2" x1="0.863" y1="0.178" x2="-0.501" y2="1.948" gradientUnits="objectBoundingBox">
      <stop offset="0" stop-color="#c83b3f"/>
      <stop offset="1" stop-color="#ab1864"/>
    </linearGradient>
    <linearGradient id="linear-gradient-3" x1="-0.507" y1="-0.956" x2="0.606" y2="0.489" gradientUnits="objectBoundingBox">
      <stop offset="0" stop-color="#5a9769"/>
      <stop offset="0.317" stop-color="#70a567"/>
      <stop offset="0.74" stop-color="#87b463"/>
      <stop offset="1" stop-color="#90ba61"/>
    </linearGradient>
  </defs>
  <g id="playstore" transform="translate(-1.35 -3.45)">
    <g id="Gruppe_21555" data-name="Gruppe 21555">
      <path id="Pfad_7490" data-name="Pfad 7490" d="M210.78,66.69H9.54a7.381,7.381,0,0,1-7.38-7.38V11.64A7.381,7.381,0,0,1,9.54,4.26H210.78a7.381,7.381,0,0,1,7.38,7.38V59.31A7.375,7.375,0,0,1,210.78,66.69Z"/>
      <path id="Pfad_7491" data-name="Pfad 7491" d="M210.78,67.5H9.54a8.194,8.194,0,0,1-8.19-8.19V11.64A8.194,8.194,0,0,1,9.54,3.45H210.78a8.194,8.194,0,0,1,8.19,8.19V59.31A8.2,8.2,0,0,1,210.78,67.5ZM9.54,5.06a6.583,6.583,0,0,0-6.57,6.58V59.31a6.581,6.581,0,0,0,6.57,6.57H210.78a6.581,6.581,0,0,0,6.57-6.57V11.64a6.583,6.583,0,0,0-6.57-6.58H9.54Z" fill="#b1b1b0"/>
    </g>
    <g id="Gruppe_21557" data-name="Gruppe 21557">
      <path id="Pfad_7492" data-name="Pfad 7492" d="M111.13,38.48A6.84,6.84,0,1,0,118,45.32,6.75,6.75,0,0,0,111.13,38.48Zm0,10.98a4.161,4.161,0,1,1,3.86-4.15A3.96,3.96,0,0,1,111.13,49.46ZM96.15,38.48a6.84,6.84,0,1,0,6.87,6.84A6.75,6.75,0,0,0,96.15,38.48Zm0,10.98a4.161,4.161,0,1,1,3.86-4.15A3.96,3.96,0,0,1,96.15,49.46ZM78.33,40.58v2.9h6.94a6.065,6.065,0,0,1-1.58,3.65,7.1,7.1,0,0,1-5.36,2.12,7.721,7.721,0,0,1,0-15.44,7.4,7.4,0,0,1,5.23,2.07l2.05-2.05a10.12,10.12,0,0,0-7.28-2.93,10.621,10.621,0,1,0,0,21.24,9.717,9.717,0,0,0,7.41-2.98,9.576,9.576,0,0,0,2.51-6.79,8.889,8.889,0,0,0-.16-1.81H78.33Zm72.87,2.25a6.36,6.36,0,0,0-5.86-4.35,6.5,6.5,0,0,0-6.45,6.84,6.69,6.69,0,0,0,6.79,6.84,6.8,6.8,0,0,0,5.7-3.03l-2.33-1.55a3.91,3.91,0,0,1-3.37,1.89,3.486,3.486,0,0,1-3.32-2.07l9.15-3.78Zm-9.32,2.28a3.755,3.755,0,0,1,3.58-3.99A2.663,2.663,0,0,1,148,42.57Zm-7.44,6.63h3.01V31.64h-3.01Zm-4.92-11.73h-.1a4.746,4.746,0,0,0-3.6-1.53,6.846,6.846,0,0,0,0,13.68,4.686,4.686,0,0,0,3.6-1.55h.1v.98c0,2.62-1.4,4.02-3.65,4.02a3.789,3.789,0,0,1-3.45-2.44l-2.62,1.09a6.524,6.524,0,0,0,6.06,4.04c3.52,0,6.5-2.07,6.5-7.13V38.89h-2.85v1.12Zm-3.45,9.45a4.16,4.16,0,0,1,0-8.29c2.05,0,3.65,1.76,3.65,4.17A3.815,3.815,0,0,1,126.07,49.46Zm39.21-17.82h-7.19V51.75h3V44.13h4.19a6.255,6.255,0,1,0,0-12.49Zm.08,9.69h-4.27V34.44h4.27a3.446,3.446,0,1,1,0,6.89Zm18.55-2.89a5.633,5.633,0,0,0-5.35,3.08l2.66,1.11a2.844,2.844,0,0,1,2.74-1.47,2.9,2.9,0,0,1,3.16,2.59v.21a6.635,6.635,0,0,0-3.13-.78c-2.87,0-5.79,1.58-5.79,4.53,0,2.69,2.35,4.42,4.99,4.42a4.239,4.239,0,0,0,3.83-1.97h.1v1.55h2.9V44C190.01,40.43,187.35,38.44,183.91,38.44Zm-.36,11.02c-.98,0-2.35-.49-2.35-1.71,0-1.55,1.71-2.15,3.18-2.15a5.312,5.312,0,0,1,2.74.67A3.647,3.647,0,0,1,183.55,49.46Zm17.02-10.58-3.44,8.72h-.1l-3.57-8.72h-3.23l5.35,12.18-3.05,6.78h3.13l8.25-18.96ZM173.54,51.74h3V31.64h-3Z" fill="#fff"/>
      <g id="Gruppe_21556" data-name="Gruppe 21556">
        <path id="Pfad_7493" data-name="Pfad 7493" d="M18.32,15.63a3.194,3.194,0,0,0-.74,2.26V53.43a3.259,3.259,0,0,0,.74,2.26l.12.12L38.35,35.9v-.47L18.44,15.52Z" fill="#8fc8f1"/>
        <path id="Pfad_7494" data-name="Pfad 7494" d="M44.99,42.53l-6.64-6.64v-.47l6.64-6.64.15.09L53,33.34c2.25,1.28,2.25,3.36,0,4.64l-7.86,4.47Z" fill="url(#linear-gradient)"/>
        <path id="Pfad_7495" data-name="Pfad 7495" d="M45.14,42.45l-6.79-6.79L18.32,55.69c.74.78,1.96.88,3.34.1L45.14,42.45" fill="url(#linear-gradient-2)"/>
        <path id="Pfad_7496" data-name="Pfad 7496" d="M45.14,28.87,21.66,15.53c-1.38-.78-2.6-.69-3.34.1L38.35,35.66Z" fill="url(#linear-gradient-3)"/>
      </g>
    </g>
    <g id="Gruppe_21558" data-name="Gruppe 21558">
      <path id="Pfad_7497" data-name="Pfad 7497" d="M75.28,16.77A3.405,3.405,0,0,0,73,15.89a3.632,3.632,0,0,0,0,7.26,2.744,2.744,0,0,0,3.02-2.55H73.33V19.49h4.15c0,3.32-1.77,4.89-4.48,4.89a4.856,4.856,0,0,1,0-9.71,4.664,4.664,0,0,1,3.2,1.25Z" fill="#fff"/>
      <path id="Pfad_7498" data-name="Pfad 7498" d="M84.83,14.78v1.19H80.5v3.02h3.78v1.2H80.5v2.86h4.46v1.19H79.22V14.78h5.61Z" fill="#fff"/>
      <path id="Pfad_7499" data-name="Pfad 7499" d="M93.11,14.78v1.21H90.24v8.25H88.95V15.99H86.08V14.78Z" fill="#fff"/>
      <path id="Pfad_7500" data-name="Pfad 7500" d="M99.23,14.78v9.46H97.95V14.78Z" fill="#fff"/>
      <path id="Pfad_7501" data-name="Pfad 7501" d="M107.94,14.78v1.21h-2.87v8.25h-1.29V15.99h-2.87V14.78Z" fill="#fff"/>
      <path id="Pfad_7502" data-name="Pfad 7502" d="M116.95,14.67a4.856,4.856,0,1,1-4.78,4.86A4.8,4.8,0,0,1,116.95,14.67Zm0,8.47a3.622,3.622,0,1,0-3.5-3.61A3.533,3.533,0,0,0,116.95,23.14Z" fill="#fff"/>
      <path id="Pfad_7503" data-name="Pfad 7503" d="M129.31,24.24,125,17.11v7.13h-1.28V14.78h1.26l4.27,7.07V14.78h1.28v9.46h-1.22Z" fill="#fff"/>
    </g>
  </g>
</svg>
